<?xml version="1.0" encoding="UTF-8"?>
<svg width="28px" height="30px" viewBox="0 0 28 30" version="1.1" xmlns="http://www.w3.org/2000/svg" xmlns:xlink="http://www.w3.org/1999/xlink">
    <!-- Generator: Sketch 53 (72520) - https://sketchapp.com -->
    <title>kali coinldpi copy 6</title>
    <desc>Created with Sketch.</desc>
    <defs>
        <filter x="-3.8%" y="-10.5%" width="107.6%" height="123.3%" filterUnits="objectBoundingBox" id="filter-1">
            <feOffset dx="0" dy="1" in="SourceAlpha" result="shadowOffsetOuter1"></feOffset>
            <feColorMatrix values="0 0 0 0 0.917647059   0 0 0 0 0.929411765   0 0 0 0 0.952941176  0 0 0 1 0" type="matrix" in="shadowOffsetOuter1" result="shadowMatrixOuter1"></feColorMatrix>
            <feMerge>
                <feMergeNode in="shadowMatrixOuter1"></feMergeNode>
                <feMergeNode in="SourceGraphic"></feMergeNode>
            </feMerge>
        </filter>
        <linearGradient x1="71.3586059%" y1="-0.0654136001%" x2="31.6208192%" y2="94.186416%" id="linearGradient-2">
            <stop stop-color="#FFF8D2" offset="0%"></stop>
            <stop stop-color="#FED702" offset="92%"></stop>
        </linearGradient>
        <linearGradient x1="70.6563872%" y1="0.903542588%" x2="31.5113861%" y2="94.9360262%" id="linearGradient-3">
            <stop stop-color="#FED702" offset="0%"></stop>
            <stop stop-color="#F8B100" offset="92%"></stop>
        </linearGradient>
        <linearGradient x1="26.8491029%" y1="95.5072136%" x2="77.5697145%" y2="-3.18943793%" id="linearGradient-4">
            <stop stop-color="#FED702" offset="0%"></stop>
            <stop stop-color="#F8B100" offset="88%"></stop>
        </linearGradient>
        <linearGradient x1="56.5838276%" y1="-25.633946%" x2="48.2253429%" y2="61.5781992%" id="linearGradient-5">
            <stop stop-color="#FFF8D2" offset="0%"></stop>
            <stop stop-color="#FFF8D2" stop-opacity="0" offset="100%"></stop>
        </linearGradient>
    </defs>
    <g id="Web" stroke="none" stroke-width="1" fill="none" fill-rule="evenodd">
        <g id="Chess-Web-Board" transform="translate(-821.000000, -211.000000)">
            <g id="Betting-Copy-3" transform="translate(762.000000, 206.000000)">
                <g id="Betting-Copy" filter="url(#filter-1)">
                    <g id="Group-7">
                        <g id="Group-5" transform="translate(37.050000, 5.950000)">
                            <g id="kali-coinldpi-copy-6" transform="translate(22.000000, 0.000000)">
                                <circle id="Oval" fill="#DB8E05" cx="13.7560298" cy="13.7560298" r="13.7560298"></circle>
                                <path d="M14.4711175,1.9143138 C20.971915,1.97590031 26.2050571,7.38866963 26.1451813,13.9784255 C26.0853055,20.5681813 20.7546515,25.8783064 14.2572755,25.8167199 C7.75989939,25.7551334 2.52504663,20.3423641 2.58492239,13.7526083 C2.64479816,7.16285245 7.97716288,1.8527273 14.4711175,1.9143138 Z M14.2624077,25.1666402 C20.4056613,25.2248052 25.4506224,20.2055052 25.505366,13.9715825 C25.5601095,7.73765982 20.6109497,2.62255859 14.4659853,2.56610429 C8.32102086,2.50965 3.28119202,7.52723926 3.22473773,13.7577405 C3.16828344,19.9882417 8.12086472,25.1067644 14.2624077,25.1666402 L14.2624077,25.1666402 Z" id="Shape" fill="url(#linearGradient-2)" fill-rule="nonzero"></path>
                                <path d="M14.4882248,0.184759509 C21.9367702,0.256610429 27.9209255,6.43750031 27.852496,13.9955328 C27.7840666,21.5535653 21.6938457,27.6181252 14.2401681,27.5462742 C6.78649049,27.4744233 0.809178221,21.2918227 0.877607669,13.7355009 C0.946037117,6.17917914 7.03967945,0.112908589 14.4882248,0.184759509 Z M14.2572755,25.8167199 C20.758073,25.8783064 26.0853055,20.5681813 26.1451813,13.9784255 C26.2050571,7.38866963 20.9684936,1.97590031 14.4711175,1.9143138 C7.97374141,1.8527273 2.64479816,7.16114172 2.58492239,13.7526083 C2.52504663,20.3440748 7.76161012,25.7534227 14.2572755,25.8167199 L14.2572755,25.8167199 Z" id="Shape" fill="url(#linearGradient-3)" fill-rule="nonzero"></path>
                                <path d="M25.5173411,14.1101521 C25.5720847,7.87622945 20.6212141,2.75941748 14.4762497,2.69954172 C8.33128528,2.63966595 3.29145644,7.66067669 3.23500215,13.8963101 C3.17854785,20.1319436 8.13112914,25.2436233 14.2726721,25.3034991 C20.414215,25.3633748 25.4608868,20.3406534 25.5173411,14.1101521 Z" id="Path" fill="url(#linearGradient-4)"></path>
                                <path d="M14.3222834,2.82100399 C20.4655371,2.87916902 25.4181184,7.99769172 25.3616641,14.2299037 C25.3473761,16.0706133 24.8852947,17.8801871 24.0153147,19.5023926 C24.9779342,17.815773 25.4910234,15.9100973 25.505366,13.968161 C25.5618202,7.73594908 20.6109497,2.61913712 14.4659853,2.55926135 C10.32247,2.53462581 6.50893836,4.81588782 4.57108712,8.47840859 C6.55379656,4.96258941 10.2860033,2.79725472 14.3222834,2.82100399 Z" id="Path" fill="#C47400"></path>
                                <path d="M0.877607669,13.7355009 C0.906149743,9.04596976 3.32999753,4.69646654 7.30313282,2.20513896 C3.13763435,4.65147127 0.567720238,9.11014877 0.538881902,13.9407893 C0.47216319,21.4954003 6.45460767,27.6780009 13.9031531,27.7498518 C16.0630847,27.7736106 18.1960956,27.2691347 20.1165469,26.2803294 L20.9171715,25.8286951 C18.8822716,26.9755374 16.5809757,27.5656132 14.2453003,27.5394313 C6.79333344,27.4744233 0.809178221,21.2918227 0.877607669,13.7355009 Z" id="Path" fill="#DB8E05"></path>
                                <g id="Group" opacity="0.8" transform="translate(7.869387, 4.447914)" fill="#FFF8D2">
                                    <path d="M8.69738282,0.369519018 C8.3419756,0.886449672 7.92040119,1.35461007 7.44341319,1.76205828 C7.14745583,1.9947184 6.84636626,2.21882485 6.54356595,2.44635276 C6.49295306,2.48017491 6.43336482,2.49805138 6.37249233,2.49767485 C5.34613917,2.52283356 4.34999811,2.85012005 3.50871994,3.43857975 C2.6364329,4.04561394 1.91151291,4.84068748 1.38740706,5.76518098 L1.38740706,5.76518098 C1.38740706,5.76518098 1.33608497,5.85071779 1.25568037,5.99955184 C1.17527577,6.14838589 1.10855706,6.26984816 1.03157393,6.40841779 L1.04183834,6.40841779 C0.978541104,6.54014448 0.910111656,6.68726779 0.841682209,6.84978773 C0.831216956,6.86330503 0.824174033,6.8791516 0.821153374,6.89597761 C0.792070859,6.96440706 0.762988344,7.03625798 0.733905828,7.1081089 C0.724694203,7.12638196 0.716693524,7.14524071 0.709955521,7.16456319 L0.686005215,7.23470337 C0.54233348,7.60802742 0.427379956,7.99177774 0.342147239,8.38260736 C0.342147239,8.38260736 0.342147239,8.39287178 0.342147239,8.39800399 C0.302800307,8.56907761 0.266874847,8.72817607 0.234370859,8.89411748 C0.0732627358,9.7647283 0.0209697059,10.6519859 0.078693865,11.5354942 C0.104354908,11.9956822 0.188180982,12.4541595 0.258321166,12.9126368 C0.345877958,13.4338372 0.485135087,13.9450198 0.674030061,14.4386135 C0.948651421,15.2167977 1.33785242,15.9496488 1.82877699,16.6129592 C2.03577607,16.886677 2.26672546,17.1415767 2.4908319,17.4016086 C2.52155474,17.4357357 2.56470734,17.4560791 2.61058344,17.4580629 L8.89582822,17.4580629 C8.91378887,17.4563139 8.93154488,17.4528773 8.94886104,17.4477985 L8.62039969,17.2014525 C7.78046708,16.5759961 7.00302184,15.8707381 6.29893067,15.0955362 C5.85071779,14.597712 5.43329816,14.0690945 5.00219264,13.5558736 C4.98137532,13.5236431 4.96416457,13.4892216 4.95087055,13.4532294 L5.00219264,13.410461 C5.02368914,13.4505259 5.04828461,13.4888491 5.07575429,13.5250804 C5.78075656,14.348713 6.55326899,15.1120697 7.38524816,15.8072025 C7.99124768,16.3090515 8.6302152,16.7697025 9.29785123,17.1860558 C9.31666933,17.198031 9.33719816,17.2031632 9.35601626,17.2134276 C9.56985828,17.3366006 9.56985828,17.3366006 9.75461779,17.1689485 C10.2538078,16.7057829 10.6810672,16.1706996 11.0222733,15.5813853 C11.3511403,15.0277868 11.6316017,14.4468309 11.860534,13.844988 C11.9871285,13.5165267 12.0897727,13.1795117 12.2026813,12.8476288 C12.2232101,12.7860423 12.2026813,12.7586706 12.1410948,12.7312988 C11.3983434,12.3434143 10.6827542,11.9056017 9.99925307,11.4208748 C9.26470769,10.9062198 8.59646463,10.3029049 8.00966687,9.62460184 C7.61345966,9.1729703 7.29336297,8.65989113 7.06191902,8.1054681 C6.97809294,7.89504755 6.93019233,7.67265184 6.86176288,7.45538834 C6.84973437,7.41552628 6.82659019,7.37991985 6.79504417,7.35274417 C6.52604311,7.16096769 6.30142222,6.913593 6.13641074,6.62739202 C6.11404608,6.57744074 6.09518248,6.52599454 6.07995644,6.47342577 L6.11930337,6.4563184 C6.17917914,6.53672301 6.23563344,6.62739202 6.29037699,6.69753221 C6.47443874,6.92309837 6.70880357,7.10238747 6.97467147,7.22101748 C7.12651912,7.2644161 7.28246151,7.29193535 7.43999172,7.30313282 C7.7120738,7.34534635 7.98163478,7.40245673 8.2474592,7.47420644 C8.64248115,7.59520689 9.03030366,7.73856985 9.40904908,7.90360123 C10.1392578,8.21939848 10.7688441,8.72945812 11.2292724,9.37825583 C11.248583,9.40322399 11.2691379,9.42720462 11.2908589,9.45010675 C11.3935962,9.336726 11.4592522,9.19467035 11.4790399,9.04295153 C11.5397409,8.67158884 11.5432025,8.29311944 11.4893043,7.92070859 C11.487791,7.9076366 11.487791,7.89443365 11.4893043,7.88136166 C11.5252298,7.90873344 11.556023,7.92926227 11.5851055,7.95321258 C11.7875039,8.16005584 12.0242423,8.33022966 12.2847966,8.45616902 C12.6628693,8.61013528 12.852761,8.44761534 12.9348764,8.09349294 C13.004165,7.68928557 13.004165,7.27623468 12.9348764,6.8720273 C12.9191491,6.8064258 12.8787004,6.74942978 12.8219678,6.71292883 C11.7955261,6.07140276 10.8323816,5.34433988 10.0847899,4.37777393 C9.83959744,4.05928013 9.61393667,3.72621627 9.40904908,3.38041472 C9.31445361,3.25535479 9.17977678,3.16657679 9.02755491,3.1289365 C8.88385307,3.06563926 8.73330828,3.01602791 8.58447423,2.96641656 C8.51946626,2.94417699 8.50406963,2.91851595 8.5263092,2.84495429 C8.65860613,2.45490644 8.78177914,2.0637181 8.89582822,1.67138926 C8.89582822,1.67138926 8.89582822,1.67138926 8.89582822,1.66283558 C8.98205984,1.41597872 9.02545334,1.15619631 9.02413344,0.894715031 C9.02932482,0.842380881 9.02932482,0.78966145 9.02413344,0.737327301 C9.02413344,0.697980368 9.02413344,0.660344172 9.02413344,0.622707975 C9.02413344,0.398601534 9.01044755,0.227527914 9.00702607,0.200156135 C9.0036046,0.172784356 9.00702607,0.0975119632 9.00702607,0.0479006135 L8.96425767,0.0376361963 C8.87016718,0.148834049 8.7812089,0.256610429 8.69738282,0.369519018 Z" id="Path"></path>
                                </g>
                                <path d="M20.1593153,12.9040831 C19.8987611,12.7781438 19.6620227,12.60797 19.4596242,12.4011267 C19.4305417,12.3771764 19.3997485,12.3566475 19.363823,12.3292758 C19.3623097,12.3423478 19.3623097,12.3555507 19.363823,12.3686227 C19.3757982,12.4627132 19.3843518,12.5568037 19.3911948,12.6508942 C19.5700332,12.8257476 19.7770859,12.9691808 20.0036383,13.0751567 C20.2961742,13.1931975 20.4740908,13.1230574 20.5784457,12.9229012 C20.4430875,12.9803835 20.2889776,12.9734643 20.1593153,12.9040831 L20.1593153,12.9040831 Z" id="Path" fill="#FFED8C"></path>
                                <path d="M10.4765485,21.9111092 C10.4306724,21.9091254 10.3875198,21.888782 10.3567969,21.8546549 C10.1326905,21.594623 9.9017411,21.341434 9.69474202,21.0660055 C9.20381745,20.4026951 8.81461645,19.6698441 8.53999509,18.8916598 C8.35110012,18.3980661 8.21184299,17.8868835 8.1242862,17.3656831 C8.05414601,16.9072058 7.97031994,16.4487285 7.9446589,15.9885405 C7.88664996,15.1038966 7.93894404,14.215472 8.10033589,13.3437423 C8.13283988,13.1726687 8.16876534,13.0118595 8.20811227,12.8476288 C8.20811227,12.8476288 8.20811227,12.8390752 8.20811227,12.8322322 C8.29295559,12.4426089 8.40733511,12.0600094 8.55025951,11.6877497 L8.57420982,11.6176095 C8.58094782,11.598287 8.5889485,11.5794283 8.59816012,11.5611552 C8.62724264,11.4893043 8.65632515,11.4174534 8.68540767,11.3490239 C8.68842833,11.3321979 8.69547125,11.3163513 8.7059365,11.302834 C8.77436595,11.1317604 8.8427954,10.9931908 8.90609264,10.8614641 L8.89582822,10.8614641 C8.97281135,10.7228945 9.04466227,10.5860356 9.11993466,10.4525982 C9.19520706,10.3191607 9.25166135,10.2182273 9.25166135,10.2182273 L9.25166135,10.2182273 C9.51220089,9.77066258 9.8164907,9.35004352 10.1600623,8.96254693 C9.75021115,9.39562856 9.39145701,9.87435009 9.09085215,10.3893009 L9.09085215,10.3893009 C9.09085215,10.3893009 9.03953006,10.4748377 8.95912546,10.6236718 C8.87872086,10.7725058 8.81200215,10.8939681 8.73672975,11.0325377 L8.73672975,11.0410914 C8.67343252,11.1728181 8.60500307,11.3199414 8.53657362,11.4824613 C8.52610837,11.4959786 8.51906544,11.5118252 8.51604479,11.5286512 C8.48696227,11.5970807 8.45787975,11.6689316 8.43050798,11.7407825 C8.42066609,11.758988 8.41209205,11.7778509 8.40484693,11.7972368 L8.38089663,11.867377 C8.23797223,12.2396367 8.12359271,12.6222362 8.03874939,13.0118595 C8.03874939,13.0118595 8.03874939,13.0221239 8.03874939,13.0272561 C7.99940245,13.1983298 7.96347699,13.3574282 7.93097301,13.5233696 C7.76986488,14.3939804 7.71757185,15.281238 7.77529601,16.1647463 C7.80095706,16.6249344 7.88478313,17.0834117 7.95663405,17.541889 C8.04701549,18.0618957 8.1897321,18.5714341 8.38260736,19.0627334 C8.65722872,19.8409177 9.04642972,20.5737687 9.53735429,21.2370791 C9.74435337,21.5107969 9.97530276,21.7656966 10.1994092,22.0257285 C10.2306828,22.059107 10.2735117,22.0792978 10.3191607,22.0821828 L16.6112485,22.0821828 C16.629169,22.0801643 16.6469018,22.0767322 16.6642813,22.0719184 L16.4487285,21.9111092 L10.4765485,21.9111092 Z" id="Path" fill="#FFED8C"></path>
                                <path d="M19.2303856,13.6858896 L19.2697325,13.7269472 C19.3713047,13.6129938 19.4362731,13.4711363 19.4562028,13.319792 C19.5066252,13.0457126 19.5221453,12.7663522 19.5023926,12.4883742 L19.4031699,12.4011267 C19.3757982,12.3771764 19.3432942,12.3566475 19.3073687,12.3292758 C19.3073687,12.3532261 19.3073687,12.3617798 19.3073687,12.3686227 C19.3621421,12.7409741 19.3586792,13.1195784 19.2971043,13.4908656 C19.2818296,13.5580517 19.2594646,13.6234261 19.2303856,13.6858896 Z" id="Path" fill="#DB8E05"></path>
                                <path d="M20.1216791,17.0081393 C19.3784862,16.6210353 18.6628446,16.1831908 17.9798374,15.6977153 C17.244396,15.1835428 16.5755301,14.5801843 15.9885405,13.9014423 C15.5929163,13.4493779 15.2728817,12.9363983 15.0407926,12.3823086 C14.9569666,12.171888 14.909066,11.9494923 14.8406365,11.7322288 C14.8352938,11.7121104 14.8266202,11.6930285 14.8149755,11.6757745 L14.7927359,11.6757745 C14.5264715,11.5578124 14.2919623,11.3784128 14.1084414,11.1522893 C14.0451442,11.0753061 13.9869791,10.9914801 13.9271034,10.9110755 L13.8894672,10.9281828 C13.9033441,10.9809558 13.9216571,11.0324612 13.9442107,11.0821491 C14.1096176,11.3671127 14.3342117,11.6132911 14.6028442,11.8040798 C14.6343902,11.8312554 14.6575344,11.8668619 14.6695629,11.9067239 C14.7379923,12.1239874 14.7858929,12.3463831 14.869719,12.5568037 C15.1018081,13.1108934 15.4218427,13.623873 15.8174669,14.0759374 C16.4044565,14.7546794 17.0733224,15.3580379 17.8087638,15.8722104 C18.491771,16.3576859 19.2074125,16.7955304 19.9506055,17.1826344 C20.0019276,17.2100061 20.0310101,17.2373779 20.0104813,17.2989644 C19.895862,17.6308472 19.7932178,17.9678623 19.668334,18.2963236 C19.4401163,18.8984739 19.1596254,19.4794906 18.8300733,20.0327209 C18.5748152,20.4676575 18.2755783,20.8752388 17.937069,21.2490543 C18.3482417,20.832778 18.7057111,20.3666884 19.0011469,19.8616472 C19.3306991,19.308417 19.6111899,18.7274003 19.8394077,18.12525 C19.9660021,17.7967887 20.0686463,17.4597736 20.1815549,17.1278908 C20.2020837,17.0628828 20.1730012,17.035511 20.1216791,17.0081393 Z" id="Path" fill="#DB8E05"></path>
                                <path d="M20.9086178,11.1488678 C20.8935684,11.0829607 20.852954,11.0257313 20.7957092,10.9897693 C19.7692675,10.3482433 18.8078337,9.62118037 18.0585313,8.65461442 C17.8197756,8.33525436 17.5998574,8.00223537 17.3998979,7.65725521 C17.3052635,7.53302232 17.1714331,7.44440489 17.0201144,7.40577699 C16.8747018,7.34247975 16.7258678,7.2928684 16.575323,7.24325706 C16.510315,7.22101748 16.4949184,7.19535644 16.517158,7.12179479 C16.640331,6.73174693 16.7595123,6.34055859 16.8747018,5.94822975 C16.8747018,5.94822975 16.8747018,5.94822975 16.8747018,5.93967607 C16.9594878,5.69249923 17.0022779,5.43286778 17.0012963,5.17155552 C17.0064877,5.11922137 17.0064877,5.06650194 17.0012963,5.01416779 C17.0012963,4.97482086 17.0012963,4.93718466 17.0012963,4.89954847 C17.0012963,4.67544202 16.9876104,4.5043684 16.9858997,4.47699663 C16.984189,4.44962485 16.9858997,4.37435245 16.977346,4.3247411 L16.9362883,4.31447669 L16.796008,4.48555031 L16.8062724,4.48555031 C16.8062724,4.53516166 16.8062724,4.58648374 16.8148261,4.63780583 C16.8233798,4.68912791 16.828512,4.83625123 16.8302227,5.06035767 C16.8302227,5.09799387 16.8302227,5.13563006 16.8302227,5.17497699 C16.8354141,5.22731114 16.8354141,5.28003057 16.8302227,5.33236472 C16.8312043,5.59367698 16.7884142,5.85330843 16.7036282,6.10048528 C16.7036282,6.10048528 16.7036282,6.10048528 16.7036282,6.10903896 C16.5895791,6.5002273 16.4703979,6.89141564 16.3460844,7.28260399 C16.3238448,7.35616564 16.3460844,7.38182669 16.4042494,7.40406626 C16.5547942,7.45367761 16.7036282,7.50328896 16.8490408,7.5665862 C17.0003595,7.6052141 17.1341899,7.69383152 17.2288242,7.81806442 C17.4287838,8.16304457 17.648702,8.49606356 17.8874577,8.81542362 C18.6436031,9.77685736 19.5981939,10.5090525 20.6246356,11.1505785 C20.6818804,11.1865405 20.7224948,11.2437699 20.7375442,11.309677 C20.8076747,11.7138123 20.8076747,12.1270073 20.7375442,12.5311426 C20.7211272,12.6059673 20.6952586,12.6783996 20.660561,12.7466954 C20.7985801,12.663108 20.8901617,12.5203671 20.9086178,12.360069 C20.977566,11.959279 20.977566,11.5496579 20.9086178,11.1488678 L20.9086178,11.1488678 Z" id="Path" fill="#DB8E05"></path>
                                <g id="Group" opacity="0.7" style="mix-blend-mode: soft-light;" transform="translate(1.026442, 1.710736)" fill="#FFF8D2">
                                    <path d="M26.2837509,8.31075644 C26.1170608,7.73447722 25.9124671,7.16984436 25.6713074,6.62054908 L4.20327883,22.2156202 C4.63792615,22.6221731 5.09913203,22.9993674 5.58384294,23.3447061 L26.2837509,8.31075644 Z" id="Path"></path>
                                    <path d="M24.8056748,4.95087055 C24.0094243,3.64812827 23.000354,2.48813113 21.8204402,1.51913374 L0.684294479,16.8729911 C1.20543858,18.3120777 1.96411149,19.6536334 2.92878037,20.8418991 L24.8056748,4.95087055 Z" id="Path"></path>
                                    <path d="M0.0153966258,14.2709613 C0.0632972393,14.5868773 0.120321779,14.8993718 0.186470245,15.2084448 L20.4244794,0.513220859 C20.1576046,0.342147239 19.8838868,0.191602454 19.6050368,0.0427684049 L0.0153966258,14.2709613 Z" id="Path"></path>
                                </g>
                                <path d="M27.852496,13.9955328 C27.9192147,6.54014448 22.0975794,0.429394785 14.7910252,0.195023926 L13.442965,27.5120595 C13.7064184,27.5308776 13.9732933,27.5428528 14.2401681,27.5462742 C21.6904242,27.6181252 27.7840666,21.5552761 27.852496,13.9955328 Z" id="Path" fill="url(#linearGradient-5)" style="mix-blend-mode: screen;"></path>
                            </g>
                        </g>
                    </g>
                </g>
            </g>
        </g>
    </g>
</svg>