<?xml version="1.0" encoding="UTF-8"?>
<svg width="15px" height="15px" viewBox="0 0 15 15" version="1.1" xmlns="http://www.w3.org/2000/svg" xmlns:xlink="http://www.w3.org/1999/xlink">
    <!-- Generator: Sketch 53.2 (72643) - https://sketchapp.com -->
    <title>Group 6</title>
    <desc>Created with Sketch.</desc>
    <defs>
        <linearGradient x1="71.3586059%" y1="-0.0654136001%" x2="31.6208192%" y2="94.186416%" id="linearGradient-1">
            <stop stop-color="#FFF8D2" offset="0%"></stop>
            <stop stop-color="#FED702" offset="92%"></stop>
        </linearGradient>
        <linearGradient x1="70.6563872%" y1="0.903542588%" x2="31.5113861%" y2="94.9360262%" id="linearGradient-2">
            <stop stop-color="#FED702" offset="0%"></stop>
            <stop stop-color="#F8B100" offset="92%"></stop>
        </linearGradient>
        <linearGradient x1="26.8491029%" y1="95.5072136%" x2="77.5697145%" y2="-3.18943793%" id="linearGradient-3">
            <stop stop-color="#FED702" offset="0%"></stop>
            <stop stop-color="#F8B100" offset="88%"></stop>
        </linearGradient>
        <linearGradient x1="56.5838276%" y1="-25.633946%" x2="48.2253429%" y2="61.5781992%" id="linearGradient-4">
            <stop stop-color="#FFF8D2" offset="0%"></stop>
            <stop stop-color="#FFF8D2" stop-opacity="0" offset="100%"></stop>
        </linearGradient>
    </defs>
    <g id="Web" stroke="none" stroke-width="1" fill="none" fill-rule="evenodd">
        <g id="Chess-Web-Challenge" transform="translate(-888.000000, -510.000000)">
            <g id="Group-41" transform="translate(355.000000, 330.000000)">
                <g id="Group-34" transform="translate(533.000000, 176.500000)">
                    <g id="Group-6" transform="translate(0.000000, 4.000000)">
                        <circle id="Oval" fill="#DB8E05" cx="7.05437423" cy="7.05437423" r="7.05437423"></circle>
                        <path d="M7.42108589,0.981699387 C10.7548282,1.01328221 13.4384908,3.78906135 13.4077853,7.16842331 C13.3770798,10.5477853 10.643411,13.2709264 7.31142331,13.2393436 C3.97943558,13.2077607 1.29489571,10.4319816 1.32560123,7.05261963 C1.35630675,3.67325767 4.09085276,0.950116564 7.42108589,0.981699387 Z M7.31405521,12.9059693 C10.4644417,12.9357975 13.0516012,10.3617975 13.0796748,7.16491411 C13.1077485,3.96803067 10.5697178,1.34490184 7.41845399,1.31595092 C4.26719018,1.287 1.68266258,3.8601227 1.65371166,7.05525153 C1.62476074,10.2503804 4.16454601,12.8752638 7.31405521,12.9059693 L7.31405521,12.9059693 Z" id="Shape" fill="url(#linearGradient-1)" fill-rule="nonzero"></path>
                        <path d="M7.4298589,0.0947484663 C11.2496258,0.131595092 14.3184233,3.30128221 14.2833313,7.17719632 C14.2482393,11.0531104 11.1250491,14.1631411 7.30265031,14.1262945 C3.48025153,14.0894479 0.41496319,10.9188834 0.450055215,7.04384663 C0.485147239,3.16880982 3.61009202,0.0579018405 7.4298589,0.0947484663 Z M7.31142331,13.2393436 C10.6451656,13.2709264 13.3770798,10.5477853 13.4077853,7.16842331 C13.4384908,3.78906135 10.7530736,1.01328221 7.42108589,0.981699387 C4.08909816,0.950116564 1.35630675,3.67238037 1.32560123,7.05261963 C1.29489571,10.4328589 3.98031288,13.2068834 7.31142331,13.2393436 L7.31142331,13.2393436 Z" id="Shape" fill="url(#linearGradient-2)" fill-rule="nonzero"></path>
                        <path d="M13.085816,7.23597546 C13.1138896,4.03909202 10.5749816,1.41508589 7.42371779,1.38438037 C4.27245399,1.35367485 1.68792638,3.92855215 1.65897546,7.12631288 C1.63002454,10.3240736 4.16980982,12.9454479 7.31931902,12.9761534 C10.4688282,13.0068589 13.056865,10.4311043 13.085816,7.23597546 Z" id="Path" fill="url(#linearGradient-3)"></path>
                        <path d="M7.34476074,1.44666871 C10.4951472,1.47649693 13.0349325,4.10138037 13.0059816,7.2973865 C12.9986544,8.24134014 12.7616896,9.16932674 12.315546,10.001227 C12.809197,9.13629385 13.0723197,8.15902425 13.0796748,7.16315951 C13.1086258,3.96715337 10.5697178,1.34314724 7.41845399,1.31244172 C5.29357435,1.29980811 3.33791711,2.46968606 2.34414724,4.34790184 C3.36092131,2.54491765 5.2748735,1.4344896 7.34476074,1.44666871 Z" id="Path" fill="#C47400"></path>
                        <path d="M0.450055215,7.04384663 C0.464692176,4.63895885 1.70769104,2.40844438 3.74519632,1.13084049 C1.60904326,2.38536988 0.291138584,4.67187116 0.276349693,7.1491227 C0.242134969,11.0232822 3.31005521,14.1938466 7.12982209,14.2306933 C8.23747935,14.2428772 9.33133108,13.9841717 10.3161779,13.477092 L10.7267546,13.2454847 C9.68321618,13.8336089 8.50306445,14.1362119 7.30528221,14.1227853 C3.48376074,14.0894479 0.41496319,10.9188834 0.450055215,7.04384663 Z" id="Path" fill="#DB8E05"></path>
                        <path d="M8.49577914,2.47047853 C8.31351903,2.73557117 8.09732702,2.97565343 7.85271779,3.18460123 C7.70094479,3.30391411 7.54653988,3.41884049 7.39125767,3.53552147 C7.36530234,3.55286616 7.33474427,3.56203359 7.30352761,3.56184049 C6.77719265,3.5747424 6.26635108,3.74258162 5.83492638,4.04435583 C5.38759969,4.35565541 5.01584585,4.76338543 4.74707362,5.23748466 L4.74707362,5.23748466 C4.74707362,5.23748466 4.7207546,5.28134969 4.67952147,5.35767485 C4.63828834,5.434 4.60407362,5.49628834 4.56459509,5.56734969 L4.5698589,5.56734969 C4.53739877,5.63490184 4.50230675,5.71034969 4.46721472,5.79369325 C4.46184793,5.8006252 4.45823617,5.80875165 4.45668712,5.81738037 C4.44177301,5.85247239 4.4268589,5.88931902 4.41194479,5.92616564 C4.40722087,5.93553645 4.40311796,5.9452076 4.39966258,5.95511656 L4.38738037,5.99108589 C4.31370256,6.18253412 4.25475203,6.37932915 4.21104294,6.5797546 C4.21104294,6.5797546 4.21104294,6.5850184 4.21104294,6.58765031 C4.19086503,6.67538037 4.17244172,6.75696933 4.15577301,6.84206748 C4.07315346,7.28853457 4.04633652,7.74353845 4.07593865,8.19661963 C4.08909816,8.4326135 4.13208589,8.66773006 4.16805521,8.90284663 C4.21295613,9.17012889 4.28437005,9.43227379 4.38123926,9.68539877 C4.52207073,10.0844676 4.72166099,10.4602887 4.97341718,10.8004479 C5.07957055,10.940816 5.19800613,11.0715337 5.31293252,11.2048834 C5.32868782,11.2223845 5.35081735,11.232817 5.37434356,11.2338344 L8.59754601,11.2338344 C8.6067566,11.2329375 8.61586225,11.2311751 8.62474233,11.2285706 L8.45630061,11.1022393 C8.02556594,10.7814924 7.62687608,10.4198217 7.26580368,10.0222822 C7.03595092,9.76698773 6.82188957,9.49590184 6.60080982,9.23271166 C6.59013427,9.21618319 6.58130824,9.19853114 6.5744908,9.18007362 L6.60080982,9.1581411 C6.61183366,9.17868718 6.62444673,9.19834009 6.63853374,9.21692025 C7.00007337,9.63929594 7.39623359,10.0307609 7.82288957,10.3872393 C8.13365855,10.6445978 8.46133421,10.8808291 8.80371166,11.0943436 C8.81336196,11.1004847 8.82388957,11.1031166 8.83353988,11.1083804 C8.94320245,11.171546 8.94320245,11.171546 9.03795092,11.0855706 C9.29394578,10.8480497 9.51305316,10.573648 9.68803067,10.2714356 C9.85668039,9.9875389 10.0005068,9.6896128 10.117908,9.38097546 C10.1828282,9.21253374 10.2354663,9.03970552 10.2933681,8.8695092 C10.3038957,8.83792638 10.2933681,8.82388957 10.2617853,8.80985276 C9.88088715,8.61093765 9.5139183,8.38641837 9.16340491,8.13784049 C8.78671497,7.87391484 8.44402622,7.56452259 8.14310429,7.21667485 C7.93992111,6.98506893 7.77576896,6.72195141 7.65707975,6.4376319 C7.61409202,6.32972393 7.58952761,6.21567485 7.55443558,6.10425767 C7.54826711,6.08381558 7.53639831,6.06555588 7.52022086,6.05161963 C7.3822716,5.95327272 7.2670814,5.8264139 7.18246012,5.67964417 C7.17099107,5.65402813 7.16131743,5.62764546 7.1535092,5.60068712 L7.17368712,5.59191411 C7.20439264,5.63314724 7.23334356,5.67964417 7.26141718,5.7156135 C7.35580781,5.83128845 7.47599491,5.92323158 7.61233742,5.98406748 C7.69020801,6.00632319 7.77017847,6.02043562 7.85096319,6.02617791 C7.99049247,6.04782588 8.12872886,6.07711325 8.26504908,6.11390798 C8.46762444,6.17595949 8.66650778,6.24947895 8.8607362,6.33411043 C9.23520219,6.49605774 9.558067,6.75762678 9.79418405,7.09034356 C9.80408695,7.10314774 9.81462788,7.1154455 9.82576687,7.12719018 C9.87845268,7.06904621 9.91212241,6.99619716 9.92226994,6.91839264 C9.95339868,6.72795023 9.95517386,6.53386336 9.92753374,6.34288344 C9.92675768,6.33617985 9.92675768,6.32940911 9.92753374,6.32270552 C9.94595706,6.33674233 9.96174847,6.34726994 9.97666258,6.35955215 C10.0804566,6.46562562 10.2018609,6.55289424 10.3354785,6.61747853 C10.529362,6.69643558 10.6267423,6.61309202 10.6688528,6.4314908 C10.7043854,6.22420496 10.7043854,6.01238399 10.6688528,5.80509816 C10.6607875,5.77145636 10.6400445,5.74222764 10.6109509,5.7235092 C10.0845706,5.39452147 9.59065031,5.02166871 9.20726994,4.52599387 C9.08153023,4.36266371 8.96580676,4.19186173 8.8607362,4.01452761 C8.8122257,3.95039431 8.74316066,3.90486713 8.66509816,3.88556442 C8.59140491,3.85310429 8.51420245,3.82766258 8.4378773,3.80222086 C8.40453988,3.79081595 8.39664417,3.77765644 8.40804908,3.73993252 C8.47589366,3.53990798 8.5390593,3.33929857 8.59754601,3.13810429 C8.59754601,3.13810429 8.59754601,3.13810429 8.59754601,3.13371779 C8.64176736,3.00712453 8.66402043,2.87390278 8.66334356,2.73980982 C8.66600581,2.71297179 8.66600581,2.68593618 8.66334356,2.65909816 C8.66334356,2.63892025 8.66334356,2.61961963 8.66334356,2.60031902 C8.66334356,2.48539264 8.65632515,2.39766258 8.65457055,2.38362577 C8.65281595,2.36958896 8.65457055,2.33098773 8.65457055,2.30554601 L8.63263804,2.30028221 C8.5843865,2.35730675 8.53876687,2.41257669 8.49577914,2.47047853 Z" id="Path" fill="#FFF8D2"></path>
                        <path d="M10.3381104,6.61747853 C10.2044928,6.55289424 10.0830885,6.46562562 9.97929448,6.35955215 C9.96438037,6.34726994 9.94858896,6.33674233 9.93016564,6.32270552 C9.92938958,6.32940911 9.92938958,6.33617985 9.93016564,6.34288344 C9.93630675,6.39113497 9.94069325,6.4393865 9.94420245,6.48763804 C10.0359145,6.57730648 10.1420953,6.65086194 10.2582761,6.70520859 C10.4082945,6.76574233 10.4995337,6.72977301 10.5530491,6.62712883 C10.4836346,6.65660692 10.4046039,6.6530586 10.3381104,6.61747853 L10.3381104,6.61747853 Z" id="Path" fill="#FFED8C"></path>
                        <path d="M5.37258896,11.2364663 C5.34906275,11.2354489 5.32693322,11.2250164 5.31117791,11.2075153 C5.19625153,11.0741656 5.07781595,10.9443252 4.97166258,10.8030798 C4.71990639,10.4629206 4.52031613,10.0870995 4.37948466,9.68803067 C4.28261544,9.43490569 4.21120153,9.17276079 4.16630061,8.90547853 C4.13033129,8.67036196 4.08734356,8.4352454 4.07418405,8.19925153 C4.04443588,7.74558798 4.07125335,7.28998563 4.1540184,6.84294479 C4.17068712,6.75521472 4.18911043,6.67274847 4.20928834,6.58852761 C4.20928834,6.58852761 4.20928834,6.5841411 4.20928834,6.5806319 C4.25279774,6.38082509 4.3114539,6.18462022 4.38474847,5.99371779 L4.39703067,5.95774847 C4.40048606,5.9478395 4.40458897,5.93816835 4.40931288,5.92879755 C4.42422699,5.89195092 4.4391411,5.85510429 4.45405521,5.82001227 C4.45560427,5.81138355 4.45921603,5.8032571 4.46458282,5.79632515 C4.49967485,5.70859509 4.53476687,5.63753374 4.56722699,5.5699816 L4.56196319,5.5699816 C4.60144172,5.49892025 4.63828834,5.4287362 4.67688957,5.36030675 C4.7154908,5.2918773 4.74444172,5.24011656 4.74444172,5.24011656 L4.74444172,5.24011656 C4.87805174,5.0105962 5.0340978,4.79489411 5.21028834,4.59617791 C5.00010828,4.81827106 4.8161318,5.06376928 4.66197546,5.32784663 L4.66197546,5.32784663 C4.66197546,5.32784663 4.63565644,5.37171166 4.59442331,5.44803681 C4.55319018,5.52436196 4.51897546,5.58665031 4.48037423,5.65771166 L4.48037423,5.66209816 C4.44791411,5.72965031 4.41282209,5.80509816 4.37773006,5.88844172 C4.37236327,5.89537366 4.36875151,5.90350011 4.36720245,5.91212883 C4.35228834,5.94722086 4.33737423,5.98406748 4.32333742,6.02091411 C4.3182903,6.03025028 4.31389336,6.03992355 4.31017791,6.04986503 L4.29789571,6.08583436 C4.22460114,6.27673678 4.16594498,6.47294165 4.12243558,6.67274847 C4.12243558,6.67274847 4.12243558,6.67801227 4.12243558,6.68064417 C4.10225767,6.76837423 4.08383436,6.84996319 4.06716564,6.93506135 C3.98454609,7.38152843 3.95772916,7.83653231 3.98733129,8.2896135 C4.0004908,8.52560736 4.04347853,8.76072393 4.08032515,8.99584049 C4.12667461,9.26251064 4.19986261,9.52381238 4.29877301,9.77576074 C4.43960447,10.1748296 4.63919473,10.5506506 4.89095092,10.8908098 C4.99710429,11.0311779 5.11553988,11.1618957 5.23046626,11.2952454 C5.24650398,11.3123625 5.26846755,11.3227168 5.2918773,11.3241963 L8.51858896,11.3241963 C8.52777895,11.3231612 8.53687272,11.3214011 8.54578528,11.3189325 L8.4352454,11.2364663 L5.37258896,11.2364663 Z" id="Path" fill="#FFED8C"></path>
                        <path d="M9.8617362,7.01840491 L9.88191411,7.03946012 C9.93400242,6.98102247 9.96731952,6.90827504 9.97753988,6.83066258 C10.0033976,6.69010905 10.0113565,6.5468473 10.001227,6.40429448 L9.95034356,6.35955215 C9.93630675,6.34726994 9.91963804,6.33674233 9.90121472,6.32270552 C9.90121472,6.33498773 9.90121472,6.33937423 9.90121472,6.34288344 C9.92930363,6.53383285 9.92752781,6.72798894 9.89595092,6.91839264 C9.88811772,6.95284701 9.87664853,6.98637234 9.8617362,7.01840491 Z" id="Path" fill="#DB8E05"></path>
                        <path d="M10.3188098,8.7221227 C9.93768521,8.52360787 9.57068956,8.29907219 9.22042945,8.05011043 C8.84328001,7.78643219 8.50027184,7.47701761 8.19925153,7.12894479 C7.99636735,6.89711687 7.83224705,6.63405039 7.71322699,6.34990184 C7.67023926,6.24199387 7.64567485,6.12794479 7.61058282,6.01652761 C7.60784297,6.00621044 7.60339497,5.99642485 7.59742331,5.98757669 L7.5860184,5.98757669 C7.44947259,5.92708328 7.32921142,5.83508349 7.23509816,5.7191227 C7.20263804,5.67964417 7.17280982,5.63665644 7.14210429,5.59542331 L7.12280368,5.60419632 C7.12992004,5.63125936 7.13931134,5.65767241 7.1508773,5.68315337 C7.23570135,5.82928855 7.35087781,5.95553391 7.48863804,6.05337423 C7.50481548,6.06731048 7.51668429,6.08557019 7.52285276,6.10601227 C7.55794479,6.21742945 7.5825092,6.33147853 7.62549693,6.4393865 C7.74451699,6.72353506 7.90863729,6.98660153 8.11152147,7.21842945 C8.41254178,7.56650227 8.75554994,7.87591685 9.13269939,8.13959509 C9.4829595,8.38855685 9.84995515,8.61309253 10.2310798,8.81160736 C10.2573988,8.82564417 10.2723129,8.83968098 10.2617853,8.8712638 C10.2030061,9.04146012 10.1503681,9.21428834 10.0863252,9.38273006 C9.9692904,9.69152507 9.82544894,9.98948237 9.65644785,10.2731902 C9.52554626,10.4962346 9.37209146,10.7052507 9.19849693,10.8969509 C9.4093547,10.6834759 9.59267235,10.4444556 9.74417791,10.1854601 C9.91317901,9.90175231 10.0570205,9.60379501 10.1740552,9.295 C10.2389755,9.12655828 10.2916135,8.95373006 10.3495153,8.78353374 C10.3600429,8.75019632 10.3451288,8.73615951 10.3188098,8.7221227 Z" id="Path" fill="#DB8E05"></path>
                        <path d="M10.7223681,5.7173681 C10.7146505,5.68356958 10.6938226,5.65422116 10.6644663,5.63577914 C10.1380859,5.30679141 9.64504294,4.93393865 9.26078528,4.4382638 C9.13834646,4.27448942 9.02556789,4.10371045 8.92302454,3.92679755 C8.87449412,3.86308837 8.80586315,3.81764354 8.7282638,3.79783436 C8.65369325,3.76537423 8.5773681,3.73993252 8.50016564,3.7144908 C8.46682822,3.70308589 8.45893252,3.68992638 8.47033742,3.65220245 C8.53350307,3.45217791 8.59462168,3.25156851 8.65369325,3.05037423 C8.65369325,3.05037423 8.65369325,3.05037423 8.65369325,3.04598773 C8.69717325,2.91923037 8.71911686,2.78608604 8.7186135,2.65207975 C8.72127575,2.62524173 8.72127575,2.59820612 8.7186135,2.5713681 C8.7186135,2.55119018 8.7186135,2.53188957 8.7186135,2.51258896 C8.7186135,2.39766258 8.71159509,2.30993252 8.71071779,2.29589571 C8.70984049,2.2818589 8.71071779,2.24325767 8.70633129,2.21781595 L8.68527607,2.21255215 L8.61333742,2.30028221 L8.61860123,2.30028221 C8.61860123,2.32572393 8.61860123,2.35204294 8.62298773,2.37836196 C8.62737423,2.40468098 8.63000613,2.48012883 8.63088344,2.59505521 C8.63088344,2.61435583 8.63088344,2.63365644 8.63088344,2.65383436 C8.63354569,2.68067238 8.63354569,2.70770799 8.63088344,2.73454601 C8.6313868,2.8685523 8.60944319,3.00169663 8.56596319,3.12845399 C8.56596319,3.12845399 8.56596319,3.12845399 8.56596319,3.13284049 C8.50747648,3.3334499 8.44635787,3.5340593 8.38260736,3.73466871 C8.37120245,3.77239264 8.38260736,3.78555215 8.41243558,3.79695706 C8.48963804,3.82239877 8.56596319,3.84784049 8.64053374,3.88030061 C8.71813308,3.90010979 8.78676406,3.94555463 8.83529448,4.0092638 C8.93783783,4.1861767 9.0506164,4.35695567 9.17305521,4.52073006 C9.56082209,5.01377301 10.0503558,5.38925767 10.5767362,5.7182454 C10.6060925,5.73668742 10.6269204,5.76603584 10.634638,5.79983436 C10.6706024,6.00708323 10.6706024,6.21897812 10.634638,6.42622699 C10.6262191,6.4645986 10.6129531,6.50174336 10.5951595,6.53676687 C10.6659385,6.49390155 10.7129034,6.4207011 10.7223681,6.33849693 C10.7577261,6.13296357 10.7577261,5.92290146 10.7223681,5.7173681 L10.7223681,5.7173681 Z" id="Path" fill="#DB8E05"></path>
                        <path d="M14.005227,5.13922699 C13.9197449,4.84369919 13.814825,4.55414387 13.6911534,4.27245399 L2.68190798,12.2699264 C2.90480404,12.478415 3.14131987,12.671848 3.38988957,12.8489448 L14.005227,5.13922699 Z" id="Path" fill="#FFF8D2" opacity="0.4"></path>
                        <path d="M13.2472393,3.41620859 C12.8389056,2.74813562 12.3214337,2.15326529 11.7163497,1.65634356 L0.877300613,9.53011656 C1.144554,10.2681097 1.53361703,10.956087 2.02831902,11.565454 L13.2472393,3.41620859 Z" id="Path" fill="#FFF8D2" opacity="0.4"></path>
                        <path d="M0.534276074,8.19574233 C0.558840491,8.35775051 0.588083845,8.51800409 0.622006135,8.67650307 L11.0004724,1.1404908 C10.8636135,1.05276074 10.7232454,0.975558282 10.5802454,0.899233129 L0.534276074,8.19574233 Z" id="Path" fill="#FFF8D2" opacity="0.4"></path>
                        <path d="M14.2833313,7.17719632 C14.317546,3.35392025 11.332092,0.220202454 7.5851411,0.10001227 L6.89382822,14.1087485 C7.02893252,14.1183988 7.16579141,14.1245399 7.30265031,14.1262945 C11.1232945,14.1631411 14.2482393,11.0539877 14.2833313,7.17719632 Z" id="Path" fill="url(#linearGradient-4)" style="mix-blend-mode: screen;"></path>
                    </g>
                </g>
            </g>
        </g>
    </g>
</svg>