<?xml version="1.0" encoding="UTF-8"?>
<svg width="18px" height="18px" viewBox="0 0 18 18" version="1.1" xmlns="http://www.w3.org/2000/svg" xmlns:xlink="http://www.w3.org/1999/xlink">
    <!-- Generator: Sketch 53 (72520) - https://sketchapp.com -->
    <title>Shape Copy</title>
    <desc>Created with Sketch.</desc>
    <g id="Web" stroke="none" stroke-width="1" fill="white" fill-rule="evenodd">
        <g id="Chess-Web-Board" transform="translate(-924.000000, -1038.000000)" fill="white" fill-rule="nonzero">
            <g id="Group-13-Copy-2" transform="translate(909.000000, 1020.000000)">
                <path d="M33,21.449851 L28.8645,18.0044687 L27.708,19.3718967 L31.8435,22.817279 L33,21.449851 Z M20.292,19.367428 L19.1355,18 L15,21.4453823 L16.1565,22.8128103 L20.292,19.367428 Z M24.45,23.4875869 L23.1,23.4875869 L23.1,28.8500497 L27.3705,31.4016882 L28.05,30.2979146 L24.45,28.1797418 L24.45,23.4875869 Z M23.9955,19.9126117 C19.518,19.9126117 15.9,23.5143992 15.9,27.9563059 C15.9,32.3982125 19.518,36 23.9955,36 C28.473,36 32.1,32.3982125 32.1,27.9563059 C32.1,23.5143992 28.473,19.9126117 23.9955,19.9126117 Z M24,34.2125124 C20.5215,34.2125124 17.7,31.4106256 17.7,27.9563059 C17.7,24.5019861 20.5215,21.7000993 24,21.7000993 C27.4785,21.7000993 30.3,24.5019861 30.3,27.9563059 C30.3,31.4106256 27.483,34.2125124 24,34.2125124 Z" id="Shape-Copy"></path>
            </g>
        </g>
    </g>
</svg>